<svg version="1.1" xmlns="http://www.w3.org/2000/svg" xmlns:xlink="http://www.w3.org/1999/xlink">

    <symbol id="icon-fullscreen" viewBox="0 0 64 64">
        <path id="path" d="M7.55 7.56C8.45 6.66 9.36 6.65 10.27 7.55L23.09 20.24C23.97 21.15 23.97 22.04 23.08 22.94C22.2 23.84 21.3 23.85 20.39 22.98L7.57 10.28C6.66 9.38 6.65 8.47 7.55 7.56ZM23.11 40.9C24.01 41.81 24.01 42.72 23.09 43.62L10.27 56.31C9.36 57.21 8.45 57.21 7.55 56.3C6.65 55.39 6.65 54.48 7.57 53.58L20.39 40.88C21.3 39.98 22.2 39.99 23.11 40.9ZM41.02 40.89C41.93 39.99 42.83 39.99 43.74 40.89L56.43 53.58C57.28 54.49 57.26 55.38 56.38 56.26C55.51 57.13 54.62 57.15 53.71 56.3L41.02 43.61C40.12 42.7 40.12 41.8 41.02 40.89ZM56.3 7.56C57.21 8.47 57.21 9.37 56.3 10.28L43.61 22.97C42.71 23.94 41.78 23.96 40.84 23.02C39.91 22.08 39.92 21.16 40.89 20.25L53.59 7.56C54.49 6.65 55.4 6.65 56.3 7.56Z" fill="currentColor"/>
        <path id="path" d="M41.61 8.92C41.61 7.64 42.25 7 43.53 7L55.07 7C56.36 7 57 7.64 57 8.92L57 20.46C57 21.74 56.36 22.38 55.07 22.38C53.79 22.38 53.15 21.74 53.15 20.46L53.15 10.84L43.53 10.84C42.25 10.84 41.61 10.2 41.61 8.92ZM55.07 41.61C56.36 41.61 57 42.25 57 43.53L57 55.07C57 56.35 56.36 57 55.07 57L43.53 57C42.25 57 41.61 56.35 41.61 55.07C41.61 53.79 42.25 53.15 43.53 53.15L53.15 53.15L53.15 43.53C53.15 42.25 53.79 41.61 55.07 41.61ZM8.92 41.61C10.2 41.61 10.84 42.25 10.84 43.53L10.84 53.15L20.46 53.15C21.74 53.15 22.38 53.79 22.38 55.07C22.38 56.35 21.74 57 20.46 57L8.92 57C7.64 57 7 56.35 7 55.07L7 43.53C7 42.25 7.64 41.61 8.92 41.61ZM7 8.92C7 7.64 7.64 7 8.92 7L20.46 7C21.74 7 22.38 7.64 22.38 8.92C22.38 10.2 21.74 10.84 20.46 10.84L10.84 10.84L10.84 20.46C10.84 21.74 10.2 22.38 8.92 22.38C7.64 22.38 7 21.74 7 20.46L7 8.92Z" fill="currentColor"/>
    </symbol>

    <symbol id="icon-search" viewBox="0 0 64 64">
        <path id="path" d="M58.48 56.06L44.54 42.34C48.19 38.37 50.44 33.13 50.44 27.35C50.43 15 40.26 5 27.71 5C15.17 5 5 15 5 27.35C5 39.7 15.17 49.71 27.71 49.71C33.14 49.71 38.11 47.84 42.01 44.72L56.01 58.49C56.69 59.16 57.8 59.16 58.48 58.49C58.56 58.41 58.64 58.33 58.7 58.23C58.76 58.14 58.82 58.04 58.86 57.94C58.91 57.83 58.94 57.72 58.96 57.61C58.98 57.5 58.99 57.39 59 57.28C59 57.16 58.98 57.05 58.96 56.94C58.94 56.83 58.91 56.72 58.86 56.62C58.82 56.51 58.76 56.41 58.7 56.32C58.64 56.22 58.56 56.14 58.48 56.06ZM27.71 46.27C17.1 46.27 8.49 37.8 8.49 27.35C8.49 16.9 17.1 8.43 27.71 8.43C38.33 8.43 46.94 16.9 46.94 27.35C46.94 37.8 38.33 46.27 27.71 46.27Z" fill="currentColor"/>
    </symbol>

    <symbol id="icon-qr" viewBox="0 0 64 64">
        <path id="path" d="M14.11 14.11L20.14 14.11L20.14 20.14L14.11 20.14L14.11 14.11ZM33.89 45.65L39.92 45.65L39.92 51.68L33.89 51.68L33.89 45.65ZM51.97 39.63L58 39.63L58 45.65L51.97 45.65L51.97 39.63ZM45.94 39.63L39.92 39.63L39.92 33.6L33.89 33.6L33.89 39.63L39.92 39.63L39.92 45.65L45.94 45.65L45.94 39.63L51.97 39.63L51.97 33.6L45.94 33.6L45.94 39.63ZM45.94 51.68L51.97 51.68L51.97 57.71L45.94 57.71L45.94 51.68Z" fill="currentColor"/>
        <path id="path" d="M7.74 28.25L26.51 28.25C27.47 28.25 28.25 27.48 28.25 26.52L28.25 7.74C28.25 6.77 27.48 6 26.51 6L7.74 6C6.77 6 6 6.77 6 7.74L6 26.52C6 27.48 6.77 28.25 7.74 28.25ZM9.48 9.48L24.77 9.48L24.77 24.77L9.48 24.77L9.48 9.48ZM41.77 14.11L47.8 14.11L47.8 20.14L41.77 20.14L41.77 14.11Z" fill="currentColor"/>
        <path id="path" d="M35.39 28.25L54.18 28.25C55.14 28.25 55.91 27.48 55.92 26.52L55.92 7.74C55.92 6.77 55.14 6 54.18 6L35.39 6C34.43 6 33.65 6.77 33.65 7.74L33.65 26.51C33.65 27.48 34.43 28.25 35.39 28.25ZM37.13 9.48L52.43 9.48L52.43 24.77L37.13 24.77L37.13 9.48ZM14.15 41.73L20.18 41.73L20.18 47.75L14.15 47.75L14.15 41.73Z" fill="currentColor"/>
        <path id="path" d="M26.55 33.61L7.77 33.61C6.81 33.61 6.03 34.39 6.03 35.35L6.03 54.13C6.03 55.09 6.81 55.87 7.77 55.87L26.55 55.87C27.51 55.87 28.29 55.09 28.29 54.13L28.29 35.35C28.29 34.39 27.52 33.61 26.55 33.61ZM24.81 52.39L9.51 52.39L9.51 37.09L24.81 37.09L24.81 52.39Z" fill="currentColor"/>
    </symbol>

    <symbol id="icon-controls" viewBox="0 0 64 64">
        <path d="M48.69 6L15.3 6C10.17 6 6 10.17 6 15.3L6 48.69C6 53.82 10.17 58 15.3 58L48.69 58C53.82 58 58 53.82 58 48.69L58 15.3C58 10.17 53.82 6 48.69 6ZM54.95 48.69C54.95 52.14 52.14 54.95 48.69 54.95L15.3 54.95C11.85 54.95 9.04 52.14 9.04 48.69L9.04 15.3C9.04 11.85 11.85 9.04 15.3 9.04L48.69 9.04C52.14 9.04 54.95 11.85 54.95 15.3L54.95 48.69Z" fill="currentColor"/>
        <path d="M49.94 17.42L26.74 17.42C26.1 15.52 24.31 14.15 22.2 14.15C20.1 14.15 18.31 15.52 17.67 17.42L14.05 17.42C13.2 17.42 12.52 18.1 12.52 18.94C12.52 19.78 13.2 20.46 14.05 20.46L17.67 20.46C18.31 22.36 20.1 23.73 22.2 23.73C24.31 23.73 26.1 22.36 26.74 20.46L49.94 20.46C50.79 20.46 51.47 19.78 51.47 18.94C51.47 18.1 50.79 17.42 49.94 17.42ZM22.2 20.68C21.24 20.68 20.46 19.9 20.46 18.94C20.46 17.98 21.24 17.2 22.2 17.2C23.16 17.2 23.94 17.98 23.94 18.94C23.94 19.9 23.16 20.68 22.2 20.68ZM49.94 30.47L46.32 30.47C45.68 28.58 43.89 27.21 41.79 27.21C39.68 27.21 37.89 28.58 37.25 30.47L14.05 30.47C13.2 30.47 12.52 31.15 12.52 32C12.52 32.84 13.2 33.52 14.05 33.52L37.25 33.52C37.89 35.41 39.68 36.78 41.79 36.78C43.89 36.78 45.68 35.41 46.32 33.52L49.94 33.52C50.79 33.52 51.47 32.84 51.47 32C51.47 31.15 50.79 30.47 49.94 30.47ZM41.79 33.74C40.83 33.74 40.05 32.95 40.05 32C40.05 31.04 40.83 30.25 41.79 30.25C42.75 30.25 43.53 31.04 43.53 32C43.53 32.95 42.75 33.74 41.79 33.74ZM49.94 43.53L33.27 43.53C32.63 41.63 30.84 40.26 28.73 40.26C26.62 40.26 24.83 41.63 24.19 43.53L14.05 43.53C13.2 43.53 12.52 44.21 12.52 45.05C12.52 45.89 13.2 46.57 14.05 46.57L24.19 46.57C24.83 48.47 26.62 49.84 28.73 49.84C30.84 49.84 32.63 48.47 33.27 46.57L49.94 46.57C50.79 46.57 51.47 45.89 51.47 45.05C51.47 44.21 50.79 43.53 49.94 43.53ZM28.73 46.79C27.77 46.79 26.99 46.01 26.99 45.05C26.99 44.09 27.77 43.31 28.73 43.31C29.69 43.31 30.47 44.09 30.47 45.05C30.47 46.01 29.69 46.79 28.73 46.79Z" fill="currentColor"/>
    </symbol>

    <symbol id="icon-star" viewBox="0 0 64 64">
        <path id="path" d="M42.92 21.65L55.11 23.35C57.85 23.73 58.97 27.09 57 29.03L48.24 37.68C47.85 38.07 47.57 38.52 47.4 39.04C47.23 39.57 47.2 40.1 47.29 40.64L49.45 52.76C49.93 55.48 47.08 57.58 44.62 56.31L33.7 50.65C33.21 50.4 32.69 50.27 32.14 50.28C31.59 50.28 31.07 50.41 30.59 50.67L19.73 56.46C17.29 57.77 14.41 55.7 14.86 52.97L16.87 40.83C16.96 40.29 16.91 39.75 16.74 39.23C16.57 38.71 16.28 38.26 15.89 37.88L7.02 29.34C5.03 27.42 6.1 24.05 8.84 23.63L21.01 21.79C21.55 21.71 22.04 21.5 22.49 21.18C22.93 20.85 23.27 20.44 23.51 19.94L28.89 8.88C30.1 6.39 33.64 6.36 34.88 8.84L40.39 19.84C40.64 20.33 40.99 20.74 41.43 21.06C41.88 21.38 42.38 21.58 42.92 21.65Z" fill="#FFD92D"/>
        <path id="path" d="M17.78 27.78C17.78 25.88 17.97 24.03 18.25 22.21L8.84 23.63C6.1 24.05 5.03 27.42 7.02 29.34L15.89 37.88C16.28 38.26 16.57 38.71 16.74 39.23C16.91 39.75 16.96 40.29 16.87 40.83L14.86 52.97C14.41 55.7 17.29 57.77 19.73 56.46L27.31 52.42C21.41 45.9 17.78 37.27 17.78 27.78Z" fill="#FFE571"/>
        <path id="path" d="M57 29.04C58.97 27.09 57.85 23.73 55.11 23.35L42.92 21.65C42.38 21.58 41.88 21.38 41.43 21.06C40.99 20.74 40.64 20.33 40.39 19.84L34.88 8.84C33.64 6.36 30.1 6.39 28.89 8.88L26.6 13.6C34.42 18.82 39.58 27.72 39.58 37.84C39.58 42.91 38.28 47.68 35.99 51.84L44.62 56.31C47.08 57.58 49.93 55.48 49.45 52.76L47.29 40.64C47.2 40.1 47.23 39.57 47.4 39.04C47.57 38.52 47.85 38.07 48.24 37.68L57 29.04Z" fill="#FFA81E"/>
    </symbol>

    <symbol id="icon-play" viewBox="0 0 64 64">
        <path d="M40.57 30.97L29.77 23.13C29.34 22.81 28.89 22.78 28.42 23.02C27.94 23.26 27.71 23.64 27.71 24.18L27.71 39.87C27.7 40.4 27.94 40.79 28.42 41.03C28.89 41.27 29.34 41.23 29.77 40.92L40.57 33.08C40.93 32.82 41.11 32.47 41.11 32.03C41.11 31.58 40.93 31.23 40.57 30.97Z" fill="currentColor"/>
        <path d="M32 6C17.63 6 6 17.63 6 32C6 46.35 17.63 57.99 32 57.99C46.35 57.99 58 46.35 58 32C58 17.63 46.35 6 32 6ZM32 53.65C20.04 53.65 10.34 43.96 10.34 32C10.34 20.04 20.04 10.33 32 10.33C43.95 10.33 53.65 20.04 53.65 32C53.65 43.96 43.95 53.65 32 53.65Z" fill="currentColor"/>
    </symbol>

    <symbol id="icon-arrow-right" viewBox="0 0 800 800">
        <path fill-rule="evenodd" clip-rule="evenodd" d="M409.763 176.43C422.781 163.412 443.886 163.412 456.903 176.43L656.903 376.43C669.921 389.447 669.921 410.553 656.903 423.57L456.903 623.57C443.886 636.588 422.781 636.588 409.763 623.57C396.746 610.553 396.746 589.447 409.763 576.43L552.859 433.333H166.667C148.257 433.333 133.333 418.409 133.333 400C133.333 381.59 148.257 366.666 166.667 366.666H552.859L409.763 223.57C396.746 210.553 396.746 189.447 409.763 176.43Z" fill="currentColor" />
    </symbol>

    <symbol id="icon-arrow-left" viewBox="0 0 800 800">
        <path fill-rule="evenodd" clip-rule="evenodd" d="M390.237 623.57C377.219 636.588 356.114 636.588 343.096 623.57L143.096 423.57C130.079 410.553 130.079 389.447 143.096 376.43L343.096 176.43C356.114 163.412 377.219 163.412 390.237 176.43C403.254 189.447 403.254 210.553 390.237 223.57L247.14 366.666L633.333 366.667C651.743 366.667 666.667 381.59 666.667 400C666.667 418.409 651.743 433.333 633.333 433.333L247.14 433.333L390.237 576.43C403.254 589.447 403.254 610.553 390.237 623.57Z" fill="currentColor"/>
    </symbol>

    <symbol id="icon-close" viewBox="0 0 64 65">
        <path d="M37.8633 32.0525L62.784 7.13137C64.4056 5.51033 64.4056 2.88925 62.784 1.2684C61.163 -0.352649 58.5419 -0.352649 56.921 1.2684L31.9997 26.1893L7.07934 1.2684C5.45752 -0.352649 2.83741 -0.352649 1.21637 1.2684C-0.405456 2.88944 -0.405456 5.51033 1.21637 7.13137L26.1365 32.0525L1.21656 56.9735C-0.405261 58.5945 -0.405261 61.2156 1.21656 62.8364C1.60108 63.2221 2.05801 63.5279 2.56109 63.7364C3.06417 63.9448 3.60348 64.0519 4.14805 64.0513C5.20931 64.0513 6.27096 63.645 7.07954 62.8364L31.9997 37.9155L56.921 62.8364C57.3056 63.222 57.7625 63.5278 58.2656 63.7363C58.7687 63.9447 59.308 64.0518 59.8525 64.0513C60.9138 64.0513 61.9754 63.645 62.784 62.8364C64.4056 61.2154 64.4056 58.5945 62.784 56.9735L37.8633 32.0525Z" fill="currentColor"/>
    </symbol>

    <symbol id="icon-menu" viewBox="0 0 64 64">
        <path d="M29.01 41.67C29.01 39.9 28.31 38.19 27.05 36.94C25.74 35.63 24.17 34.98 22.32 34.98L6.69 34.98C4.91 34.98 3.21 35.68 1.96 36.94C0.65 38.25 -0.01 39.82 0 41.67L0 57.3C0 59.08 0.7 60.78 1.96 62.03C3.26 63.34 4.84 64 6.69 64L22.32 64C24.09 64 25.8 63.29 27.05 62.03C28.36 60.73 29.01 59.15 29.01 57.3L29.01 41.67ZM62.5 41.67C62.5 39.9 61.79 38.19 60.53 36.94C59.23 35.63 57.65 34.98 55.8 34.98L40.17 34.98C38.4 34.98 36.69 35.68 35.44 36.94C34.13 38.25 33.48 39.82 33.48 41.67L33.48 57.3C33.48 59.08 34.18 60.78 35.44 62.03C36.75 63.34 38.33 64 40.17 64L55.8 64C57.58 64 59.28 63.29 60.53 62.03C61.84 60.73 62.5 59.15 62.5 57.3L62.5 41.67ZM24.55 41.67L24.55 57.3C24.55 58.79 23.81 59.54 22.32 59.53L6.69 59.53C5.2 59.54 4.45 58.79 4.46 57.3L4.46 41.67C4.45 40.18 5.2 39.44 6.69 39.44L22.32 39.44C23.81 39.44 24.55 40.18 24.55 41.67ZM58.03 41.67L58.03 57.3C58.04 58.79 57.29 59.54 55.8 59.53L40.17 59.53C38.68 59.54 37.94 58.79 37.94 57.3L37.94 41.67C37.94 40.18 38.68 39.44 40.17 39.44L55.8 39.44C57.29 39.44 58.04 40.18 58.03 41.67ZM52.72 30.05L62.03 20.74C63.34 19.43 64 17.85 64 16C64 14.15 63.34 12.58 62.03 11.27L52.72 1.96C51.41 0.65 49.84 0 47.99 0C46.14 0 44.56 0.65 43.25 1.96L33.94 11.27C32.63 12.58 31.98 14.15 31.98 16C31.98 17.85 32.63 19.43 33.94 20.74L43.25 30.05C44.56 31.36 46.14 32.01 47.99 32.01C49.84 32.01 51.41 31.36 52.72 30.05ZM29.01 8.19C29.01 6.41 28.31 4.71 27.05 3.46C25.74 2.15 24.17 1.49 22.32 1.49L6.69 1.49C4.91 1.49 3.21 2.2 1.96 3.46C0.65 4.76 -0.01 6.34 0 8.19L0 23.82C0 25.59 0.7 27.3 1.96 28.55C3.26 29.86 4.84 30.51 6.69 30.51L22.32 30.51C24.09 30.51 25.8 29.81 27.05 28.55C28.36 27.24 29.01 25.67 29.01 23.82L29.01 8.19ZM58.88 17.58L49.57 26.89C48.51 27.95 47.46 27.95 46.41 26.89L37.1 17.58C36.04 16.53 36.04 15.48 37.1 14.42L46.41 5.11C47.46 4.06 48.51 4.06 49.57 5.11L58.88 14.42C59.93 15.48 59.93 16.53 58.88 17.58ZM24.55 8.19L24.55 23.82C24.55 25.31 23.81 26.05 22.32 26.05L6.69 26.05C5.2 26.05 4.45 25.31 4.46 23.82L4.46 8.19C4.45 6.7 5.2 5.95 6.69 5.96L22.32 5.96C23.81 5.95 24.55 6.7 24.55 8.19Z" fill="currentColor"/>
    </symbol>

    <!-- Untested -->

    <symbol id="icon-favorites-add" viewBox="0 0 64.0771 64">
        <path id="path" d="M17.58 57.63C16.88 57.63 16.19 57.41 15.6 56.98C14.46 56.16 14.02 55.06 14.27 53.68L16.81 38.82L6.02 28.32C5 27.34 4.72 26.18 5.17 24.84C5.6 23.51 6.5 22.76 7.89 22.56L22.79 20.39L29.48 6.87C30.04 5.72 31.2 5 32.49 5C33.79 5 34.94 5.71 35.51 6.87L42.2 20.39L57.11 22.57C58.38 22.74 59.42 23.62 59.82 24.84C60.27 26.17 59.99 27.33 58.98 28.31L53.85 33.28C53.03 34.04 52.23 34.01 51.46 33.21C50.68 32.41 50.68 31.62 51.46 30.82L56.58 25.85L40.81 23.66C40.21 23.58 39.78 23.26 39.51 22.72L32.43 8.39L25.48 22.72C25.21 23.26 24.78 23.58 24.18 23.66L8.37 25.97L19.86 36.99C20.29 37.41 20.46 37.92 20.36 38.51L17.65 54.27L31.69 46.76C32.27 46.45 32.83 46.47 33.39 46.81C34.2 47.3 34.5 48.39 34.01 49.2C33.75 49.62 33.35 49.9 32.91 50L19.15 57.24C18.66 57.5 18.14 57.63 17.58 57.63Z"/>
        <path id="path" d="M47.96 58.81C41.33 58.81 35.93 53.42 35.93 46.78C35.93 40.15 41.33 34.75 47.96 34.75C54.6 34.75 59.99 40.15 59.99 46.78C59.99 53.42 54.6 58.81 47.96 58.81ZM47.96 38.19C43.22 38.19 39.37 42.04 39.37 46.78C39.37 51.52 43.22 55.37 47.96 55.37C52.7 55.37 56.56 51.52 56.56 46.78C56.56 42.04 52.7 38.19 47.96 38.19Z"/>
        <path id="path" d="M47.96 51.94C46.82 51.94 46.24 51.36 46.24 50.22L46.24 43.34C46.24 42.2 46.82 41.63 47.96 41.63C49.11 41.63 49.68 42.2 49.68 43.34L49.68 50.22C49.68 51.36 49.11 51.94 47.96 51.94Z"/>
        <path id="path" d="M51.4 48.5L44.53 48.5C43.38 48.5 42.81 47.93 42.81 46.78C42.81 45.64 43.38 45.06 44.53 45.06L51.4 45.06C52.55 45.06 53.12 45.64 53.12 46.78C53.12 47.93 52.55 48.5 51.4 48.5Z"/>
    </symbol>

    <symbol id="icon-fullscreen" viewBox="0 0 64 64">
        <path d="M57 24C55.22 24 55.33 23.11 55.33 21.33L55.33 9.66C55.33 9.11 54.88 8.66 54.33 8.66L42.66 8.66C40.88 8.66 40 8.77 40 7C40 5.22 40.88 5.33 42.66 5.33L53.33 5.33C54.8 5.33 56.06 5.85 57.1 6.89C58.14 7.93 58.66 9.19 58.66 10.66L58.66 21.33C58.66 23.11 58.77 24 57 24ZM53.33 58.66L42.66 58.66C40.88 58.66 40 58.77 40 57C40 55.22 40.88 55.33 42.66 55.33L54.33 55.33C54.88 55.33 55.33 54.88 55.33 54.33L55.33 42.66C55.33 40.88 55.22 40 57 40C58.77 40 58.66 40.88 58.66 42.66L58.66 53.33C58.66 54.8 58.14 56.06 57.1 57.1C56.06 58.14 54.8 58.66 53.33 58.66ZM21.33 58.66L10.66 58.66C9.19 58.66 7.93 58.14 6.89 57.1C5.85 56.06 5.33 54.8 5.33 53.33L5.33 42.66C5.33 40.88 5.22 40 7 40C8.77 40 8.66 40.88 8.66 42.66L8.66 54.33C8.66 54.88 9.11 55.33 9.66 55.33L21.33 55.33C23.11 55.33 24 55.22 24 57C24 58.77 23.11 58.66 21.33 58.66ZM7 24C5.22 24 5.33 23.11 5.33 21.33L5.33 10.66C5.33 9.19 5.85 7.93 6.89 6.89C7.93 5.85 9.19 5.33 10.66 5.33L21.33 5.33C23.11 5.33 24 5.22 24 7C24 8.77 23.11 8.66 21.33 8.66L9.66 8.66C9.11 8.66 8.66 9.11 8.66 9.66L8.66 21.33C8.66 23.11 8.77 24 7 24Z"/>
    </symbol>

</svg>