<svg width="660.000000" height="660.000000" viewBox="0 0 660 660" fill="none" xmlns="http://www.w3.org/2000/svg" xmlns:xlink="http://www.w3.org/1999/xlink">
	<desc>
			Created with Pixso.
	</desc>
	<defs/>
	<rect id="фрейм 3" width="660.000000" height="660.000000" fill="#FFFFFF" fill-opacity="0"/>
	<rect id="Прямоугольник 1" rx="120.000000" width="660.000000" height="660.000000" fill="#FFFFFF" fill-opacity="1.000000"/>
	<rect id="Прямоугольник 1" x="7.500000" y="7.500000" rx="120.000000" width="645.000000" height="645.000000" stroke="#4272A5" stroke-opacity="1.000000" stroke-width="15.000000"/>
	<path id="path2908" d="M487.55 424.51L481.48 424.71L478.46 332.25L484.52 332.05L487.55 424.51Z" fill="#D32027" fill-opacity="1.000000" fill-rule="nonzero"/>
	<path id="path2908" d="M481.48 424.71L478.46 332.25L484.52 332.05L487.55 424.51L481.48 424.71Z" stroke="#000000" stroke-opacity="0" stroke-width="0.133333"/>
	<path id="path2910" d="M369.6 362.77L365.89 357.97L439.03 301.33L442.75 306.13L369.6 362.77Z" fill="#D32027" fill-opacity="1.000000" fill-rule="nonzero"/>
	<path id="path2910" d="M365.89 357.97L439.03 301.33L442.75 306.13L369.6 362.77L365.89 357.97Z" stroke="#000000" stroke-opacity="0" stroke-width="0.133333"/>
	<path id="path2912" d="M343.02 470.96L337 470.18L349.03 378.45L355.04 379.24L343.02 470.96Z" fill="#D32027" fill-opacity="1.000000" fill-rule="nonzero"/>
	<path id="path2912" d="M337 470.18L349.03 378.45L355.04 379.24L343.02 470.96L337 470.18Z" stroke="#000000" stroke-opacity="0" stroke-width="0.133333"/>
	<path id="path2914" d="M363.91 486.88L361.78 481.2L475.5 438.6L477.62 444.28L363.91 486.88Z" fill="#D32027" fill-opacity="1.000000" fill-rule="nonzero"/>
	<path id="path2914" d="M361.78 481.2L475.5 438.6L477.62 444.28L363.91 486.88L361.78 481.2Z" stroke="#000000" stroke-opacity="0" stroke-width="0.133333"/>
	<path id="path2916" d="M211.99 400.49L215.64 395.65L312.61 468.74L308.96 473.58L211.99 400.49Z" fill="#D32027" fill-opacity="1.000000" fill-rule="nonzero"/>
	<path id="path2916" d="M215.64 395.65L312.61 468.74L308.96 473.58L211.99 400.49L215.64 395.65Z" stroke="#000000" stroke-opacity="0" stroke-width="0.133333"/>
	<path id="path2918" d="M239.01 357.71L239.34 351.65L337 356.93L336.67 362.99L239.01 357.71Z" fill="#D32027" fill-opacity="1.000000" fill-rule="nonzero"/>
	<path id="path2918" d="M239.34 351.65L337 356.93L336.67 362.99L239.01 357.71L239.34 351.65Z" stroke="#000000" stroke-opacity="0" stroke-width="0.133333"/>
	<path id="path2920" d="M353.58 375.52L356.39 370.14L485.39 437.41L482.59 442.79L353.58 375.52Z" fill="#D32027" fill-opacity="1.000000" fill-rule="nonzero"/>
	<path id="path2920" d="M356.39 370.14L485.39 437.41L482.59 442.79L353.58 375.52L356.39 370.14Z" stroke="#000000" stroke-opacity="0" stroke-width="0.133333"/>
	<path id="path2922" d="M219.55 290.55L214.86 286.7L276.91 211.1L281.6 214.95L219.55 290.55Z" fill="#D32027" fill-opacity="1.000000" fill-rule="nonzero"/>
	<path id="path2922" d="M214.86 286.7L276.91 211.1L281.6 214.95L219.55 290.55L214.86 286.7Z" stroke="#000000" stroke-opacity="0" stroke-width="0.133333"/>
	<path id="path2924" d="M303.68 200.72L309.44 198.83L357.03 344.08L351.27 345.97L303.68 200.72Z" fill="#D32027" fill-opacity="1.000000" fill-rule="nonzero"/>
	<path id="path2924" d="M309.44 198.83L357.03 344.08L351.27 345.97L303.68 200.72L309.44 198.83Z" stroke="#000000" stroke-opacity="0" stroke-width="0.133333"/>
	<path id="path2926" d="M311.84 191.41L313.64 185.61L459.65 230.8L457.86 236.59L311.84 191.41Z" fill="#D32027" fill-opacity="1.000000" fill-rule="nonzero"/>
	<path id="path2926" d="M313.64 185.61L459.65 230.8L457.86 236.59L311.84 191.41L313.64 185.61Z" stroke="#000000" stroke-opacity="0" stroke-width="0.133333"/>
	<path id="path2928" d="M556.54 269.5C556.54 311.53 522.46 345.61 480.43 345.61C438.39 345.61 404.32 311.53 404.32 269.5C404.32 227.46 438.39 193.39 480.43 193.39C522.46 193.39 556.54 227.46 556.54 269.5Z" fill="#D32027" fill-opacity="1.000000" fill-rule="nonzero"/>
	<path id="path2928" d="M480.43 345.61C438.39 345.61 404.32 311.53 404.32 269.5C404.32 227.46 438.39 193.39 480.43 193.39C522.46 193.39 556.54 227.46 556.54 269.5C556.54 311.53 522.46 345.61 480.43 345.61Z" stroke="#000000" stroke-opacity="0" stroke-width="0.133333"/>
	<path id="path2930" d="M456.71 233.65C456.71 241.26 450.54 247.44 442.92 247.44C435.31 247.44 429.14 241.26 429.14 233.65C429.14 226.03 435.31 219.86 442.92 219.86C450.54 219.86 456.71 226.03 456.71 233.65Z" fill="#FFFFFF" fill-opacity="1.000000" fill-rule="nonzero"/>
	<path id="path2930" d="M442.92 247.44C435.31 247.44 429.14 241.26 429.14 233.65C429.14 226.03 435.31 219.86 442.92 219.86C450.54 219.86 456.71 226.03 456.71 233.65C456.71 241.26 450.54 247.44 442.92 247.44Z" stroke="#000000" stroke-opacity="0" stroke-width="0.133333"/>
	<path id="path2932" d="M556.54 269.5C556.54 227.46 522.46 193.39 480.43 193.39L480.43 345.61C522.46 345.61 556.54 311.53 556.54 269.5Z" fill="#C11D23" fill-opacity="1.000000" fill-rule="nonzero"/>
	<path id="path2932" d="M480.43 193.39L480.43 345.61C522.46 345.61 556.54 311.53 556.54 269.5C556.54 227.46 522.46 193.39 480.43 193.39Z" stroke="#000000" stroke-opacity="0" stroke-width="0.133333"/>
	<path id="path2934" d="M376.56 491.58C376.56 515.24 357.38 534.42 333.72 534.42C310.06 534.42 290.89 515.24 290.89 491.58C290.89 467.92 310.06 448.74 333.72 448.74C357.38 448.74 376.56 467.92 376.56 491.58Z" fill="#D32027" fill-opacity="1.000000" fill-rule="nonzero"/>
	<path id="path2934" d="M333.72 534.42C310.06 534.42 290.89 515.24 290.89 491.58C290.89 467.92 310.06 448.74 333.72 448.74C357.38 448.74 376.56 467.92 376.56 491.58C376.56 515.24 357.38 534.42 333.72 534.42Z" stroke="#000000" stroke-opacity="0" stroke-width="0.133333"/>
	<path id="path2936" d="M320.37 471.4C320.37 475.69 316.9 479.16 312.61 479.16C308.33 479.16 304.85 475.69 304.85 471.4C304.85 467.12 308.33 463.64 312.61 463.64C316.9 463.64 320.37 467.12 320.37 471.4Z" fill="#FFFFFF" fill-opacity="1.000000" fill-rule="nonzero"/>
	<path id="path2936" d="M312.61 479.16C308.33 479.16 304.85 475.69 304.85 471.4C304.85 467.12 308.33 463.64 312.61 463.64C316.9 463.64 320.37 467.12 320.37 471.4C320.37 475.69 316.9 479.16 312.61 479.16Z" stroke="#000000" stroke-opacity="0" stroke-width="0.133333"/>
	<path id="path2938" d="M376.56 491.58C376.56 467.92 357.38 448.74 333.72 448.74L333.72 534.42C357.38 534.42 376.56 515.24 376.56 491.58Z" fill="#C11D23" fill-opacity="1.000000" fill-rule="nonzero"/>
	<path id="path2938" d="M333.72 448.74L333.72 534.42C357.38 534.42 376.56 515.24 376.56 491.58C376.56 467.92 357.38 448.74 333.72 448.74Z" stroke="#000000" stroke-opacity="0" stroke-width="0.133333"/>
	<path id="path2940" d="M504.33 440.1C504.33 450.56 495.85 459.04 485.39 459.04C474.93 459.04 466.46 450.56 466.46 440.1C466.46 429.65 474.93 421.17 485.39 421.17C495.85 421.17 504.33 429.65 504.33 440.1Z" fill="#D32027" fill-opacity="1.000000" fill-rule="nonzero"/>
	<path id="path2940" d="M485.39 459.04C474.93 459.04 466.46 450.56 466.46 440.1C466.46 429.65 474.93 421.17 485.39 421.17C495.85 421.17 504.33 429.65 504.33 440.1C504.33 450.56 495.85 459.04 485.39 459.04Z" stroke="#000000" stroke-opacity="0" stroke-width="0.133333"/>
	<path id="path2942" d="M479.49 431.18C479.49 433.08 477.96 434.62 476.06 434.62C474.17 434.62 472.63 433.08 472.63 431.18C472.63 429.29 474.17 427.76 476.06 427.76C477.96 427.76 479.49 429.29 479.49 431.18Z" fill="#FFFFFF" fill-opacity="1.000000" fill-rule="nonzero"/>
	<path id="path2942" d="M476.06 434.62C474.17 434.62 472.63 433.08 472.63 431.18C472.63 429.29 474.17 427.76 476.06 427.76C477.96 427.76 479.49 429.29 479.49 431.18C479.49 433.08 477.96 434.62 476.06 434.62Z" stroke="#000000" stroke-opacity="0" stroke-width="0.133333"/>
	<path id="path2944" d="M504.33 440.1C504.33 429.65 495.85 421.17 485.39 421.17L485.39 459.04C495.85 459.04 504.33 450.56 504.33 440.1Z" fill="#C11D23" fill-opacity="1.000000" fill-rule="nonzero"/>
	<path id="path2944" d="M485.39 421.17L485.39 459.04C495.85 459.04 504.33 450.56 504.33 440.1C504.33 429.65 495.85 421.17 485.39 421.17Z" stroke="#000000" stroke-opacity="0" stroke-width="0.133333"/>
	<path id="path2946" d="M255.22 341.38C255.22 383.42 221.14 417.49 179.11 417.49C137.07 417.49 103 383.42 103 341.38C103 299.34 137.07 265.27 179.11 265.27C221.14 265.27 255.22 299.34 255.22 341.38Z" fill="#D32027" fill-opacity="1.000000" fill-rule="nonzero"/>
	<path id="path2946" d="M179.11 417.49C137.07 417.49 103 383.42 103 341.38C103 299.34 137.07 265.27 179.11 265.27C221.14 265.27 255.22 299.34 255.22 341.38C255.22 383.42 221.14 417.49 179.11 417.49Z" stroke="#000000" stroke-opacity="0" stroke-width="0.133333"/>
	<path id="path2948" d="M155.39 305.53C155.39 313.15 149.22 319.32 141.6 319.32C133.99 319.32 127.81 313.15 127.81 305.53C127.81 297.92 133.99 291.74 141.6 291.74C149.22 291.74 155.39 297.92 155.39 305.53Z" fill="#FFFFFF" fill-opacity="1.000000" fill-rule="nonzero"/>
	<path id="path2948" d="M141.6 319.32C133.99 319.32 127.81 313.15 127.81 305.53C127.81 297.92 133.99 291.74 141.6 291.74C149.22 291.74 155.39 297.92 155.39 305.53C155.39 313.15 149.22 319.32 141.6 319.32Z" stroke="#000000" stroke-opacity="0" stroke-width="0.133333"/>
	<path id="path2950" d="M255.22 341.38C255.22 299.34 221.14 265.27 179.11 265.27L179.11 417.49C221.14 417.49 255.22 383.42 255.22 341.38Z" fill="#C11D23" fill-opacity="1.000000" fill-rule="nonzero"/>
	<path id="path2950" d="M179.11 265.27L179.11 417.49C221.14 417.49 255.22 383.42 255.22 341.38C255.22 299.34 221.14 265.27 179.11 265.27Z" stroke="#000000" stroke-opacity="0" stroke-width="0.133333"/>
	<path id="path2952" d="M385.75 362.71C385.75 380.98 370.93 395.8 352.66 395.8C334.38 395.8 319.56 380.98 319.56 362.71C319.56 344.43 334.38 329.61 352.66 329.61C370.93 329.61 385.75 344.43 385.75 362.71Z" fill="#D32027" fill-opacity="1.000000" fill-rule="nonzero"/>
	<path id="path2952" d="M352.66 395.8C334.38 395.8 319.56 380.98 319.56 362.71C319.56 344.43 334.38 329.61 352.66 329.61C370.93 329.61 385.75 344.43 385.75 362.71C385.75 380.98 370.93 395.8 352.66 395.8Z" stroke="#000000" stroke-opacity="0" stroke-width="0.133333"/>
	<path id="path2954" d="M342.34 347.12C342.34 350.43 339.66 353.11 336.35 353.11C333.04 353.11 330.36 350.43 330.36 347.12C330.36 343.81 333.04 341.12 336.35 341.12C339.66 341.12 342.34 343.81 342.34 347.12Z" fill="#FFFFFF" fill-opacity="1.000000" fill-rule="nonzero"/>
	<path id="path2954" d="M336.35 353.11C333.04 353.11 330.36 350.43 330.36 347.12C330.36 343.81 333.04 341.12 336.35 341.12C339.66 341.12 342.34 343.81 342.34 347.12C342.34 350.43 339.66 353.11 336.35 353.11Z" stroke="#000000" stroke-opacity="0" stroke-width="0.133333"/>
	<path id="path2956" d="M385.75 362.71C385.75 344.43 370.93 329.61 352.66 329.61L352.66 395.8C370.93 395.8 385.75 380.98 385.75 362.71Z" fill="#C11D23" fill-opacity="1.000000" fill-rule="nonzero"/>
	<path id="path2956" d="M352.66 329.61L352.66 395.8C370.93 395.8 385.75 380.98 385.75 362.71C385.75 344.43 370.93 329.61 352.66 329.61Z" stroke="#000000" stroke-opacity="0" stroke-width="0.133333"/>
	<path id="path2958" d="M358.54 180.15C358.54 210.61 333.85 235.3 303.39 235.3C272.93 235.3 248.23 210.61 248.23 180.15C248.23 149.69 272.93 125 303.39 125C333.85 125 358.54 149.69 358.54 180.15Z" fill="#D32027" fill-opacity="1.000000" fill-rule="nonzero"/>
	<path id="path2958" d="M303.39 235.3C272.93 235.3 248.23 210.61 248.23 180.15C248.23 149.69 272.93 125 303.39 125C333.85 125 358.54 149.69 358.54 180.15C358.54 210.61 333.85 235.3 303.39 235.3Z" stroke="#000000" stroke-opacity="0" stroke-width="0.133333"/>
	<path id="path2960" d="M286.2 154.17C286.2 159.69 281.73 164.16 276.21 164.16C270.69 164.16 266.22 159.69 266.22 154.17C266.22 148.65 270.69 144.18 276.21 144.18C281.73 144.18 286.2 148.65 286.2 154.17Z" fill="#FFFFFF" fill-opacity="1.000000" fill-rule="nonzero"/>
	<path id="path2960" d="M276.21 164.16C270.69 164.16 266.22 159.69 266.22 154.17C266.22 148.65 270.69 144.18 276.21 144.18C281.73 144.18 286.2 148.65 286.2 154.17C286.2 159.69 281.73 164.16 276.21 164.16Z" stroke="#000000" stroke-opacity="0" stroke-width="0.133333"/>
	<path id="path2962" d="M358.54 180.15C358.54 149.69 333.85 125 303.39 125L303.39 235.3C333.85 235.3 358.54 210.61 358.54 180.15Z" fill="#C11D23" fill-opacity="1.000000" fill-rule="nonzero"/>
	<path id="path2962" d="M303.39 125L303.39 235.3C333.85 235.3 358.54 210.61 358.54 180.15C358.54 149.69 333.85 125 303.39 125Z" stroke="#000000" stroke-opacity="0" stroke-width="0.133333"/>
</svg>
