<svg width="660.000000" height="660.000000" viewBox="0 0 660 660" fill="none" xmlns="http://www.w3.org/2000/svg" xmlns:xlink="http://www.w3.org/1999/xlink">
	<desc>
			Created with Pixso.
	</desc>
	<defs/>
	<rect id="фрейм 3" width="660.000000" height="660.000000" fill="#FFFFFF" fill-opacity="0"/>
	<rect id="Прямоугольник 1" rx="120.000000" width="660.000000" height="660.000000" fill="#FFFFFF" fill-opacity="1.000000"/>
	<rect id="Прямоугольник 1" x="7.500000" y="7.500000" rx="120.000000" width="645.000000" height="645.000000" stroke="#4272A5" stroke-opacity="1.000000" stroke-width="15.000000"/>
	<path id="path2205" d="M390.56 438.51L372.91 444.79L317.65 289.43L335.3 283.16L390.56 438.51Z" fill="#4272A5" fill-opacity="1.000000" fill-rule="nonzero"/>
	<path id="path2205" d="M372.91 444.79L317.65 289.43L335.3 283.16L390.56 438.51L372.91 444.79Z" stroke="#000000" stroke-opacity="0" stroke-width="0.133333"/>
	<path id="path2207" d="M333.68 302.31L324.32 286.12L534.11 165.22L543.48 181.41L333.68 302.31Z" fill="#4272A5" fill-opacity="1.000000" fill-rule="nonzero"/>
	<path id="path2207" d="M324.32 286.12L534.11 165.22L543.48 181.41L333.68 302.31L324.32 286.12Z" stroke="#000000" stroke-opacity="0" stroke-width="0.133333"/>
	<path id="path2209" d="M324.26 302.28L117.96 181.37L127.44 165.26L333.74 286.16L324.26 302.28Z" fill="#4272A5" fill-opacity="1.000000" fill-rule="nonzero"/>
	<path id="path2209" d="M117.96 181.37L127.44 165.26L333.74 286.16L324.26 302.28L117.96 181.37Z" stroke="#000000" stroke-opacity="0" stroke-width="0.133333"/>
	<path id="path2211" d="M603.48 173.32C603.48 213.26 571.04 245.63 531.03 245.63C491.01 245.63 458.57 213.26 458.57 173.32C458.57 133.37 491.01 101 531.03 101C571.04 101 603.48 133.37 603.48 173.32Z" fill="#ED464E" fill-opacity="1.000000" fill-rule="nonzero"/>
	<path id="path2211" d="M531.03 245.63C491.01 245.63 458.57 213.26 458.57 173.32C458.57 133.37 491.01 101 531.03 101C571.04 101 603.48 133.37 603.48 173.32C603.48 213.26 571.04 245.63 531.03 245.63Z" stroke="#000000" stroke-opacity="0" stroke-width="0.133333"/>
	<path id="path2213" d="M571.62 148.61C571.62 158.34 563.72 166.23 553.96 166.23C544.21 166.23 536.31 158.34 536.31 148.61C536.31 138.87 544.21 130.98 553.96 130.98C563.72 130.98 571.62 138.87 571.62 148.61Z" fill="#FFFFFF" fill-opacity="1.000000" fill-rule="nonzero"/>
	<path id="path2213" d="M553.96 166.23C544.21 166.23 536.31 158.34 536.31 148.61C536.31 138.87 544.21 130.98 553.96 130.98C563.72 130.98 571.62 138.87 571.62 148.61C571.62 158.34 563.72 166.23 553.96 166.23Z" stroke="#000000" stroke-opacity="0" stroke-width="0.133333"/>
	<path id="path2215" d="M201.91 173.32C201.91 213.26 169.47 245.63 129.45 245.63C89.44 245.63 57 213.26 57 173.32C57 133.37 89.44 101 129.45 101C169.47 101 201.91 133.37 201.91 173.32Z" fill="#ED464E" fill-opacity="1.000000" fill-rule="nonzero"/>
	<path id="path2215" d="M129.45 245.63C89.44 245.63 57 213.26 57 173.32C57 133.37 89.44 101 129.45 101C169.47 101 201.91 133.37 201.91 173.32C201.91 213.26 169.47 245.63 129.45 245.63Z" stroke="#000000" stroke-opacity="0" stroke-width="0.133333"/>
	<path id="path2217" d="M170.05 148.61C170.05 158.34 162.14 166.23 152.39 166.23C142.64 166.23 134.73 158.34 134.73 148.61C134.73 138.87 142.64 130.98 152.39 130.98C162.14 130.98 170.05 138.87 170.05 148.61Z" fill="#FFFFFF" fill-opacity="1.000000" fill-rule="nonzero"/>
	<path id="path2217" d="M152.39 166.23C142.64 166.23 134.73 158.34 134.73 148.61C134.73 138.87 142.64 130.98 152.39 130.98C162.14 130.98 170.05 138.87 170.05 148.61C170.05 158.34 162.14 166.23 152.39 166.23Z" stroke="#000000" stroke-opacity="0" stroke-width="0.133333"/>
	<path id="path2219" d="M465.26 443.36C478.65 481 458.94 522.37 421.24 535.78C383.53 549.19 342.12 529.56 328.73 491.93C315.35 454.3 335.06 412.92 372.76 399.51C410.46 386.1 451.87 405.73 465.26 443.36Z" fill="#ED464E" fill-opacity="1.000000" fill-rule="nonzero"/>
	<path id="path2219" d="M421.24 535.78C383.53 549.19 342.12 529.56 328.73 491.93C315.35 454.3 335.06 412.92 372.76 399.51C410.46 386.1 451.87 405.73 465.26 443.36C478.65 481 458.94 522.37 421.24 535.78Z" stroke="#000000" stroke-opacity="0" stroke-width="0.133333"/>
	<path id="path2221" d="M426.97 430.76C430.23 439.93 425.43 450.01 416.24 453.28C407.05 456.55 396.96 451.77 393.69 442.59C390.43 433.43 395.24 423.34 404.42 420.07C413.61 416.8 423.71 421.59 426.97 430.76Z" fill="#FFFFFF" fill-opacity="1.000000" fill-rule="nonzero"/>
	<path id="path2221" d="M416.24 453.28C407.05 456.55 396.96 451.77 393.69 442.59C390.43 433.43 395.24 423.34 404.42 420.07C413.61 416.8 423.71 421.59 426.97 430.76C430.23 439.93 425.43 450.01 416.24 453.28Z" stroke="#000000" stroke-opacity="0" stroke-width="0.133333"/>
</svg>
