<?xml version="1.0" encoding="UTF-8" standalone="no"?>
<svg
   width="360"
   height="270"
   viewBox="0 0 360 270"
   fill="none"
   preserveAspectRatio="none"
   version="1.1"
   id="svg6"
   sodipodi:docname="placeholder.svg"
   inkscape:export-filename="placeholder1.svg"
   inkscape:export-xdpi="172.8"
   inkscape:export-ydpi="172.8"
   xmlns:inkscape="http://www.inkscape.org/namespaces/inkscape"
   xmlns:sodipodi="http://sodipodi.sourceforge.net/DTD/sodipodi-0.dtd"
   xmlns="http://www.w3.org/2000/svg"
   xmlns:svg="http://www.w3.org/2000/svg">
  <defs
     id="defs10" />
  <sodipodi:namedview
     id="namedview8"
     pagecolor="#ffffff"
     bordercolor="#000000"
     borderopacity="0.25"
     inkscape:showpageshadow="2"
     inkscape:pageopacity="0.0"
     inkscape:pagecheckerboard="0"
     inkscape:deskcolor="#d1d1d1"
     showgrid="false" />
  <rect
     width="360"
     height="270"
     fill="#ecf5fe"
     id="rect2"
     x="0"
     y="0"
     style="fill:#f8fbff;fill-opacity:1;stroke-width:1.8" />
  <path
     fill-rule="evenodd"
     clip-rule="evenodd"
     d="m 153.37422,108.37426 c -4.69231,4.69232 -6.88784,12.69238 -6.88784,26.62564 0,7.71324 0.67125,13.63762 2.0879,18.19045 l 10.04384,-10.04387 c 4.64401,-4.64382 12.17344,-4.64402 16.81744,-2e-4 l 0.7422,0.7422 c 2.11055,2.11075 5.53373,2.11075 7.64428,0 l 9.39023,-9.39066 c 4.64401,-4.64402 12.17424,-4.64402 16.81825,0 l 3.44742,3.44824 c 0.0241,-0.95346 0.0361,-1.93518 0.0361,-2.94616 0,-13.93326 -2.19673,-21.93332 -6.88884,-26.62565 -4.69211,-4.69232 -12.69135,-6.88786 -26.62538,-6.88786 -13.93323,0 -21.93327,2.19554 -26.62558,6.88786 z m 59.47637,38.11663 -7.40796,-7.40658 c -2.11055,-2.11075 -5.53192,-2.11075 -7.64247,0 l -9.39224,9.39086 c -4.64401,4.64382 -12.17303,4.64382 -16.81684,0 l -0.742,-0.742 v 0 c -2.11095,-2.11075 -5.53352,-2.11095 -7.64447,0 l -11.68098,11.6812 c 4.42755,6.29258 12.64345,9.09904 28.47617,9.09904 12.02992,0 19.66438,-1.63593 24.5469,-5.12887 4.43155,-3.17004 7.13938,-8.28808 8.30389,-16.89365 z M 148.78774,103.78776 C 155.44669,97.128592 165.82505,95 179.9998,95 c 14.17455,0 24.55291,2.128592 31.21126,8.78776 6.66035,6.65897 8.78894,17.03736 8.78894,31.21214 0,3.86714 -0.16035,7.4184 -0.51511,10.66741 -1.14046,10.4285 -4.34737,18.11609 -11.16406,22.99261 C 201.70056,173.39714 192.2963,175 179.9998,175 162.21728,175 150.47377,171.6147 144.56263,160.43798 141.2046,154.08768 140,145.64867 140,134.9999 c 0,-14.17478 2.12859,-24.55317 8.78774,-31.21214 z m 17.56886,12.83389 c -2.60983,0 -4.73521,2.12298 -4.73521,4.73942 0,2.61645 2.12538,4.73943 4.73521,4.73943 2.61523,0 4.73941,-2.12418 4.73941,-4.73943 0,-2.61544 -2.12418,-4.73942 -4.73941,-4.73942 z m -11.22158,4.73942 c 0,-6.19656 5.02703,-11.22602 11.22158,-11.22602 6.19775,0 11.22599,5.02825 11.22599,11.22602 0,6.19758 -5.02824,11.22582 -11.22599,11.22582 -6.19455,0 -11.22158,-5.02925 -11.22158,-11.22582 z"
     fill="#949faf"
     id="path4"
     style="fill:#c6cdd9;fill-opacity:1;stroke-width:2.00432" />
</svg>
