<svg width="200" height="150" viewBox="0 0 200 150" fill="none" xmlns="http://www.w3.org/2000/svg" preserveAspectRatio="none">
<rect width="200" height="150" fill="#ECF5FE"/>
<path fill-rule="evenodd" clip-rule="evenodd" d="M86.7159 61.7157C84.3748 64.0568 83.2794 68.0482 83.2794 74.9998C83.2794 78.8481 83.6143 81.8039 84.3211 84.0754L89.3322 79.0643C91.6492 76.7474 95.4058 76.7473 97.7228 79.0642L98.0931 79.4345C99.1461 80.4876 100.854 80.4876 101.907 79.4345L106.592 74.7493C108.909 72.4323 112.666 72.4323 114.983 74.7493L116.703 76.4697C116.715 75.994 116.721 75.5042 116.721 74.9998C116.721 68.0482 115.625 64.0568 113.284 61.7157C110.943 59.3746 106.952 58.2792 100 58.2792C93.0484 58.2792 89.057 59.3746 86.7159 61.7157ZM116.39 80.7329L112.694 77.0376C111.641 75.9845 109.934 75.9845 108.881 77.0376L104.195 81.7229C101.878 84.0398 98.1216 84.0398 95.8047 81.7229L95.4345 81.3527V81.3527C94.3813 80.2996 92.6737 80.2995 91.6205 81.3527L85.7926 87.1807C88.0016 90.3202 92.1007 91.7204 100 91.7204C106.002 91.7204 109.811 90.9042 112.247 89.1615C114.458 87.5799 115.809 85.0264 116.39 80.7329ZM84.4276 59.4274C87.7499 56.105 92.9279 55.043 100 55.043C107.072 55.043 112.25 56.105 115.572 59.4274C118.895 62.7497 119.957 67.9277 119.957 74.9998C119.957 76.9292 119.877 78.701 119.7 80.322C119.131 85.525 117.531 89.3605 114.13 91.7935C110.827 94.157 106.135 94.9567 100 94.9567C91.1279 94.9567 85.2688 93.2677 82.3196 87.6914C80.6442 84.5231 80.0432 80.3127 80.0432 74.9998C80.0432 67.9277 81.1052 62.7497 84.4276 59.4274ZM93.1931 65.8305C91.891 65.8305 90.8306 66.8897 90.8306 68.1951C90.8306 69.5005 91.891 70.5597 93.1931 70.5597C94.4979 70.5597 95.5577 69.4999 95.5577 68.1951C95.5577 66.8902 94.4979 65.8305 93.1931 65.8305ZM87.5944 68.1951C87.5944 65.1035 90.1025 62.5942 93.1931 62.5942C96.2853 62.5942 98.794 65.1029 98.794 68.1951C98.794 71.2872 96.2853 73.7959 93.1931 73.7959C90.1025 73.7959 87.5944 71.2867 87.5944 68.1951Z" fill="#949FAF"/>
</svg>
