<svg width="118" height="162" viewBox="0 0 118 162" fill="none" xmlns="http://www.w3.org/2000/svg">
<g clip-path="url(#clip0_4_7)">
<path d="M100.7 162H17.2993C7.74516 162 0 155.302 0 147.04V62.9598C0 54.6972 7.74516 48 17.2993 48H100.7C110.255 48 118 54.6972 118 62.9598V147.04C118 155.302 110.255 162 100.7 162Z" fill="white"/>
<path d="M118 64.4491V146.062C118 154.871 109.704 162 99.4876 162H18.5132C8.28262 162 0 154.871 0 146.062V64.4491C0 60.4401 1.70556 56.801 4.54239 54V126.745C4.54239 135.54 12.8387 142.682 23.0562 142.682H94.9312C105.162 142.682 113.444 135.54 113.444 126.745V54C116.281 56.801 118 60.4401 118 64.4491Z" fill="#F5F5F5"/>
<path d="M103.68 135.395H14.736V56.2013H103.68V135.395Z" fill="#F5F5F5"/>
<path d="M117.575 139.788C117.575 150.164 109.163 158.576 98.7875 158.576C88.4115 158.576 80 150.164 80 139.788C80 129.412 88.4115 121 98.7875 121C109.163 121 117.575 129.412 117.575 139.788Z" fill="#CC4E4E"/>
<path d="M114.483 139.788C114.483 148.457 107.455 155.484 98.7874 155.484C90.1181 155.484 83.0916 148.457 83.0916 139.788C83.0916 131.12 90.1181 124.092 98.7874 124.092C107.455 124.092 114.483 131.12 114.483 139.788Z" fill="#F84E4E"/>
<path d="M112.154 136.293C112.154 142.492 106.697 133.011 99.3141 133.011C91.9328 133.011 85.4208 142.492 85.4208 136.293C85.4208 130.095 91.4048 125.069 98.7875 125.069C106.17 125.069 112.154 130.095 112.154 136.293Z" fill="#FA7B7B"/>
<path d="M38.0333 140.247C38.0333 150.623 29.6213 159.035 19.2453 159.035C8.86932 159.035 0.457863 150.623 0.457863 140.247C0.457863 129.871 8.86932 121.459 19.2453 121.459C29.6213 121.459 38.0333 129.871 38.0333 140.247Z" fill="#CC4E4E"/>
<path d="M34.9413 140.247C34.9413 148.916 27.9133 155.943 19.2453 155.943C10.576 155.943 3.54945 148.916 3.54945 140.247C3.54945 131.579 10.576 124.551 19.2453 124.551C27.9133 124.551 34.9413 131.579 34.9413 140.247Z" fill="#F84E4E"/>
<path d="M32.612 136.752C32.612 142.951 27.1547 133.469 19.772 133.469C12.3907 133.469 5.87866 142.951 5.87866 136.752C5.87866 130.553 11.8627 125.528 19.2453 125.528C26.628 125.528 32.612 130.553 32.612 136.752Z" fill="#FA7B7B"/>
<path d="M29.0053 95.7987C29.0053 112.479 42.528 126.001 59.208 126.001C75.8893 126.001 89.4107 112.479 89.4107 95.7987V82.8374H29.0053V95.7987Z" fill="#B3E5F8"/>
<mask id="mask0_4_7" style="mask-type:luminance" maskUnits="userSpaceOnUse" x="29" y="82" width="61" height="45">
<path d="M29.008 95.7987C29.008 112.479 42.5306 126.001 59.2107 126.001C75.8907 126.001 89.4133 112.479 89.4133 95.7987V82.8374H29.008V95.7987Z" fill="white"/>
</mask>
<g mask="url(#mask0_4_7)">
<path d="M33.8813 115.3H24.6053V81.7667H33.8813V115.3Z" fill="#83D7F7"/>
<path d="M40.54 113.04H38.0333V97.4627H40.54V113.04Z" fill="#83D7F7"/>
<path d="M40.54 127.428H38.0333V115.3H40.54V127.428Z" fill="#83D7F7"/>
<path d="M36.748 124.336H34.9413V94.0147H36.748V124.336Z" fill="#83D7F7"/>
<path d="M44.9693 113.04H43.6307V105.905H44.9693V113.04Z" fill="#83D7F7"/>
<path d="M44.9693 122.439H43.6307V115.3H44.9693V122.439Z" fill="#83D7F7"/>
<path d="M84.536 115.3H93.8107V81.7667H84.536V115.3Z" fill="#83D7F7"/>
<path d="M77.8773 113.04H80.384V97.4627H77.8773V113.04Z" fill="#83D7F7"/>
<path d="M77.8773 127.428H80.384V115.3H77.8773V127.428Z" fill="#83D7F7"/>
<path d="M81.668 124.336H83.476V94.0147H81.668V124.336Z" fill="#83D7F7"/>
<path d="M73.448 113.04H74.7853V105.905H73.448V113.04Z" fill="#83D7F7"/>
<path d="M73.448 122.439H74.7853V115.3H73.448V122.439Z" fill="#83D7F7"/>
</g>
<path d="M89.4107 85.156C89.4107 100.556 75.8893 113.04 59.208 113.04C42.528 113.04 29.0053 100.556 29.0053 85.156C29.0053 69.756 42.528 57.272 59.208 57.272C75.8893 57.272 89.4107 69.756 89.4107 85.156Z" fill="#CEEFEC"/>
<path d="M44.5693 86.228C44.5693 93.116 50.944 98.6987 58.8093 98.6987C66.6733 98.6987 73.048 93.116 73.048 86.228L73.448 80.712H44.9693L44.5693 86.228Z" fill="#62A9C9"/>
<path d="M73.448 80.712C73.448 87.5987 67.072 93.1827 59.208 93.1827C51.344 93.1827 44.9693 87.5987 44.9693 80.712C44.9693 73.824 51.344 68.2414 59.208 68.2414C67.072 68.2414 73.448 73.824 73.448 80.712Z" fill="#83D7F7"/>
<path d="M73.844 18.9173L70.8893 49.4814L68.2507 76.892C67.7933 81.5574 63.884 85.1107 59.204 85.1107C54.5373 85.1107 50.6133 81.5574 50.1707 76.892L47.5173 49.4814L44.564 18.9173H73.844Z" fill="#B3E5F8"/>
<path d="M73.844 18.9173L70.8893 49.4814C67.3227 51.108 63.3707 52.0067 59.204 52.0067C55.0373 52.0067 51.0707 51.108 47.5173 49.4814L44.564 18.9173H73.844Z" fill="#62A9C9"/>
<path d="M87.5573 28.9147C87.5573 44.5707 74.8653 57.264 59.208 57.264C43.5507 57.264 30.8587 44.5707 30.8587 28.9147C30.8587 13.2574 43.5507 0.564005 59.208 0.564005C74.8653 0.564005 87.5573 13.2574 87.5573 28.9147Z" fill="#F84E4E"/>
<path d="M87.5893 28.9173C87.5893 44.5707 74.904 57.2693 59.236 57.2693C43.584 57.2693 30.8987 44.5707 30.8987 28.9173C30.8987 27.404 31.012 25.9067 31.2547 24.4653C33.3813 37.992 45.096 48.352 59.236 48.352C73.392 48.352 85.1067 37.992 87.232 24.4653C87.4747 25.9067 87.5893 27.404 87.5893 28.9173Z" fill="#CC4E4E"/>
<path d="M76.9653 15.0707C76.9653 22.032 71.3213 27.676 64.36 27.676C57.4 27.676 51.756 22.032 51.756 15.0707C51.756 8.11069 57.4 2.46668 64.36 2.46668C71.3213 2.46668 76.9653 8.11069 76.9653 15.0707Z" fill="#FA7B7B"/>
<path d="M56.16 32.0787C56.16 34.5107 54.188 36.4814 51.756 36.4814C49.324 36.4814 47.3533 34.5107 47.3533 32.0787C47.3533 29.6467 49.324 27.676 51.756 27.676C54.188 27.676 56.16 29.6467 56.16 32.0787Z" fill="#FA7B7B"/>
</g>
<defs>
<clipPath id="clip0_4_7">
<rect width="118" height="162" fill="white"/>
</clipPath>
</defs>
</svg>
